<svg width="152" height="142" viewBox="0 0 152 142" fill="none" xmlns="http://www.w3.org/2000/svg">
<g filter="url(#filter0_d_1203_10545)">
<path d="M105.144 86.4367H54.8305V45.969C54.8305 45.4767 54.4367 44.9844 53.8459 44.9844H50.8921C50.3998 44.9844 49.9075 45.3782 49.9075 45.969V86.4367H45.969C45.4767 86.4367 44.9844 86.8305 44.9844 87.4213V90.3751C44.9844 90.8675 45.3782 91.3598 45.969 91.3598H49.9075V95.2982C49.9075 95.7905 50.3013 96.2828 50.8921 96.2828H53.8459C54.3382 96.2828 54.8305 95.889 54.8305 95.2982V91.3598H105.144C105.637 91.3598 106.129 90.9659 106.129 90.3751V87.4213C106.129 86.8305 105.637 86.4367 105.144 86.4367Z" stroke="#41B6A3" stroke-width="1.96923"/>
<path d="M99.2367 72.5536L89.8828 63.1997" stroke="#41B6A3" stroke-width="1.96923"/>
<path d="M85.453 62.7075L78.0684 72.0614" stroke="#41B6A3" stroke-width="1.96923"/>
<path d="M73.6375 71.5692L62.3145 60.2461" stroke="#41B6A3" stroke-width="1.96923"/>
<path d="M101.206 77.4765C102.837 77.4765 104.16 76.1541 104.16 74.5227C104.16 72.8913 102.837 71.5688 101.206 71.5688C99.5744 71.5688 98.252 72.8913 98.252 74.5227C98.252 76.1541 99.5744 77.4765 101.206 77.4765Z" stroke="#41B6A3" stroke-width="1.96923"/>
<path d="M87.4206 63.6919C89.052 63.6919 90.3745 62.3694 90.3745 60.738C90.3745 59.1067 89.052 57.7842 87.4206 57.7842C85.7893 57.7842 84.4668 59.1067 84.4668 60.738C84.4668 62.3694 85.7893 63.6919 87.4206 63.6919Z" stroke="#41B6A3" stroke-width="1.96923"/>
<path d="M75.6062 77.4765C77.2376 77.4765 78.56 76.1541 78.56 74.5227C78.56 72.8913 77.2376 71.5688 75.6062 71.5688C73.9748 71.5688 72.6523 72.8913 72.6523 74.5227C72.6523 76.1541 73.9748 77.4765 75.6062 77.4765Z" stroke="#41B6A3" stroke-width="1.96923"/>
<path d="M60.8367 61.7226C62.468 61.7226 63.7905 60.4002 63.7905 58.7688C63.7905 57.1374 62.468 55.8149 60.8367 55.8149C59.2053 55.8149 57.8828 57.1374 57.8828 58.7688C57.8828 60.4002 59.2053 61.7226 60.8367 61.7226Z" stroke="#41B6A3" stroke-width="1.96923"/>
</g>
<path d="M26.4913 130.283V115.737H29.1262V128.074H35.5325V130.283H26.4913ZM37.7058 130.283V119.374H40.2768V130.283H37.7058ZM38.9984 117.825C38.5912 117.825 38.2408 117.69 37.9473 117.42C37.6537 117.146 37.5069 116.817 37.5069 116.433C37.5069 116.045 37.6537 115.716 37.9473 115.446C38.2408 115.171 38.5912 115.034 38.9984 115.034C39.4103 115.034 39.7607 115.171 40.0495 115.446C40.3431 115.716 40.4899 116.045 40.4899 116.433C40.4899 116.817 40.3431 117.146 40.0495 117.42C39.7607 117.69 39.4103 117.825 38.9984 117.825ZM45.4917 123.891V130.283H42.9206V119.374H45.378V121.227H45.5059C45.7568 120.617 46.1569 120.131 46.7061 119.771C47.2601 119.412 47.9443 119.232 48.7587 119.232C49.5115 119.232 50.1673 119.393 50.726 119.715C51.2895 120.037 51.7251 120.503 52.0328 121.114C52.3453 121.724 52.4992 122.465 52.4945 123.337V130.283H49.9235V123.734C49.9235 123.005 49.7341 122.435 49.3553 122.023C48.9812 121.611 48.4628 121.405 47.7999 121.405C47.3501 121.405 46.95 121.504 46.5996 121.703C46.254 121.897 45.9817 122.179 45.7828 122.548C45.5887 122.918 45.4917 123.365 45.4917 123.891ZM59.9377 130.496C58.8439 130.496 57.8993 130.269 57.1039 129.814C56.3132 129.355 55.7047 128.706 55.2786 127.868C54.8525 127.025 54.6394 126.033 54.6394 124.892C54.6394 123.77 54.8525 122.785 55.2786 121.938C55.7095 121.085 56.3108 120.422 57.0826 119.949C57.8543 119.471 58.7611 119.232 59.8027 119.232C60.4751 119.232 61.1096 119.34 61.7061 119.558C62.3075 119.771 62.8378 120.103 63.2971 120.553C63.7611 121.002 64.1257 121.575 64.3908 122.271C64.656 122.963 64.7885 123.787 64.7885 124.743V125.531H55.8468V123.798H62.324C62.3193 123.306 62.2128 122.868 62.0044 122.484C61.7961 122.096 61.5049 121.791 61.1309 121.568C60.7615 121.346 60.3307 121.234 59.8382 121.234C59.3127 121.234 58.851 121.362 58.4533 121.618C58.0556 121.869 57.7454 122.2 57.5229 122.612C57.3051 123.019 57.1938 123.467 57.1891 123.955V125.467C57.1891 126.102 57.3051 126.646 57.5371 127.101C57.7691 127.551 58.0935 127.896 58.5101 128.138C58.9268 128.375 59.4145 128.493 59.9732 128.493C60.3472 128.493 60.6858 128.441 60.9888 128.337C61.2918 128.228 61.5546 128.069 61.7772 127.861C61.9997 127.653 62.1678 127.394 62.2814 127.087L64.682 127.357C64.5305 127.991 64.2417 128.545 63.8155 129.019C63.3941 129.487 62.8543 129.852 62.1962 130.112C61.5381 130.368 60.7852 130.496 59.9377 130.496ZM84.4885 120.645H81.8322C81.7565 120.209 81.6168 119.823 81.4132 119.487C81.2096 119.146 80.9563 118.858 80.6532 118.621C80.3502 118.384 80.0046 118.206 79.6163 118.088C79.2328 117.965 78.8185 117.903 78.3734 117.903C77.5827 117.903 76.8819 118.102 76.2711 118.5C75.6603 118.893 75.1821 119.471 74.8365 120.233C74.4908 120.991 74.318 121.916 74.318 123.01C74.318 124.123 74.4908 125.06 74.8365 125.822C75.1868 126.58 75.6651 127.153 76.2711 127.541C76.8819 127.925 77.5803 128.117 78.3663 128.117C78.8019 128.117 79.2091 128.06 79.5879 127.946C79.9714 127.828 80.3147 127.655 80.6177 127.428C80.9255 127.2 81.1835 126.921 81.3919 126.59C81.6049 126.258 81.7517 125.879 81.8322 125.453L84.4885 125.467C84.389 126.159 84.1736 126.807 83.8422 127.413C83.5154 128.019 83.0869 128.554 82.5566 129.019C82.0263 129.478 81.4061 129.838 80.6958 130.098C79.9856 130.354 79.1973 130.482 78.3308 130.482C77.0524 130.482 75.9113 130.186 74.9075 129.594C73.9037 129.002 73.113 128.147 72.5353 127.03C71.9577 125.912 71.6689 124.572 71.6689 123.01C71.6689 121.443 71.96 120.103 72.5424 118.99C73.1248 117.873 73.9179 117.018 74.9217 116.426C75.9255 115.834 77.0618 115.538 78.3308 115.538C79.1404 115.538 79.8933 115.652 80.5893 115.879C81.2853 116.107 81.9056 116.44 82.4501 116.881C82.9946 117.316 83.4421 117.851 83.7924 118.486C84.1476 119.116 84.3796 119.835 84.4885 120.645ZM89.3588 123.891V130.283H86.7878V115.737H89.302V121.227H89.4299C89.6855 120.612 90.0809 120.126 90.6159 119.771C91.1557 119.412 91.8423 119.232 92.6756 119.232C93.4332 119.232 94.0937 119.39 94.6571 119.707C95.2206 120.025 95.6562 120.489 95.964 121.099C96.2765 121.71 96.4327 122.456 96.4327 123.337V130.283H93.8617V123.734C93.8617 123.001 93.6723 122.43 93.2935 122.023C92.9194 121.611 92.3939 121.405 91.7168 121.405C91.2623 121.405 90.8551 121.504 90.4952 121.703C90.1401 121.897 89.8607 122.179 89.6571 122.548C89.4583 122.918 89.3588 123.365 89.3588 123.891ZM102.193 130.503C101.501 130.503 100.879 130.38 100.325 130.134C99.7755 129.883 99.3399 129.513 99.0179 129.026C98.7007 128.538 98.5421 127.937 98.5421 127.222C98.5421 126.606 98.6557 126.097 98.883 125.695C99.1103 125.292 99.4204 124.97 99.8134 124.729C100.206 124.487 100.649 124.305 101.142 124.182C101.639 124.054 102.152 123.962 102.683 123.905C103.322 123.839 103.84 123.779 104.238 123.727C104.636 123.67 104.925 123.585 105.105 123.472C105.289 123.353 105.382 123.171 105.382 122.925V122.882C105.382 122.347 105.223 121.933 104.906 121.639C104.588 121.346 104.132 121.199 103.535 121.199C102.905 121.199 102.406 121.336 102.036 121.611C101.672 121.885 101.426 122.21 101.298 122.584L98.8972 122.243C99.0866 121.58 99.3991 121.026 99.8347 120.581C100.27 120.131 100.803 119.795 101.433 119.572C102.062 119.345 102.758 119.232 103.521 119.232C104.046 119.232 104.57 119.293 105.09 119.416C105.611 119.539 106.087 119.743 106.518 120.027C106.949 120.306 107.294 120.688 107.555 121.17C107.82 121.653 107.953 122.257 107.953 122.982V130.283H105.481V128.784H105.396C105.24 129.087 105.019 129.371 104.735 129.636C104.456 129.897 104.103 130.108 103.677 130.269C103.256 130.425 102.761 130.503 102.193 130.503ZM102.86 128.614C103.376 128.614 103.824 128.512 104.203 128.308C104.581 128.1 104.873 127.825 105.076 127.484C105.285 127.144 105.389 126.772 105.389 126.369V125.084C105.308 125.15 105.171 125.212 104.977 125.269C104.787 125.325 104.574 125.375 104.338 125.418C104.101 125.46 103.866 125.498 103.634 125.531C103.402 125.564 103.201 125.593 103.031 125.617C102.647 125.669 102.304 125.754 102.001 125.872C101.698 125.991 101.459 126.156 101.284 126.369C101.108 126.578 101.021 126.848 101.021 127.179C101.021 127.653 101.194 128.01 101.539 128.251C101.885 128.493 102.325 128.614 102.86 128.614ZM110.538 130.283V119.374H113.031V121.192H113.144C113.343 120.562 113.684 120.077 114.167 119.736C114.655 119.39 115.211 119.217 115.836 119.217C115.978 119.217 116.137 119.224 116.312 119.239C116.492 119.248 116.641 119.265 116.759 119.288V121.653C116.651 121.616 116.478 121.582 116.241 121.554C116.009 121.521 115.784 121.504 115.566 121.504C115.097 121.504 114.676 121.606 114.302 121.81C113.933 122.009 113.642 122.286 113.428 122.641C113.215 122.996 113.109 123.405 113.109 123.869V130.283H110.538ZM124.501 119.374V121.362H118.23V119.374H124.501ZM119.778 116.76H122.349V127.001C122.349 127.347 122.401 127.612 122.505 127.797C122.614 127.977 122.756 128.1 122.931 128.166C123.106 128.233 123.301 128.266 123.514 128.266C123.675 128.266 123.821 128.254 123.954 128.23C124.091 128.206 124.195 128.185 124.267 128.166L124.7 130.176C124.562 130.224 124.366 130.276 124.11 130.332C123.859 130.389 123.552 130.422 123.187 130.432C122.543 130.451 121.963 130.354 121.447 130.141C120.931 129.923 120.521 129.587 120.218 129.132C119.92 128.678 119.773 128.109 119.778 127.428V116.76Z" fill="#41B6A3"/>
<defs>
<filter id="filter0_d_1203_10545" x="-3.01562" y="-3.01562" width="157.145" height="147.298" filterUnits="userSpaceOnUse" color-interpolation-filters="sRGB">
<feFlood flood-opacity="0" result="BackgroundImageFix"/>
<feColorMatrix in="SourceAlpha" type="matrix" values="0 0 0 0 0 0 0 0 0 0 0 0 0 0 0 0 0 0 127 0" result="hardAlpha"/>
<feOffset/>
<feGaussianBlur stdDeviation="22"/>
<feComposite in2="hardAlpha" operator="out"/>
<feColorMatrix type="matrix" values="0 0 0 0 0.0666667 0 0 0 0 0.207843 0 0 0 0 0.403922 0 0 0 0.7 0"/>
<feBlend mode="normal" in2="BackgroundImageFix" result="effect1_dropShadow_1203_10545"/>
<feBlend mode="normal" in="SourceGraphic" in2="effect1_dropShadow_1203_10545" result="shape"/>
</filter>
</defs>
</svg>
