<svg width="36" height="42" viewBox="0 0 36 42" fill="none" xmlns="http://www.w3.org/2000/svg">
<path d="M17.8473 1.198L1.19803 6.37575V18.9503C1.19803 30.0455 10.9101 36.7026 17.8473 40.401C24.7845 36.7026 34.4966 30.0455 34.4966 18.9503V6.37575L17.8473 1.198Z" stroke="#113567" stroke-width="2.39598" stroke-linejoin="round"/>
<path d="M14.8567 29.2028C12.8788 29.4488 12.8795 28.2205 12.8795 28.2205" stroke="#113567" stroke-width="0.659414"/>
<mask id="path-3-inside-1_682_7356" fill="white">
<path d="M18.417 8.16455C19.7642 8.16459 20.8564 9.25682 20.8564 10.604C20.8563 11.9511 19.7641 13.0434 18.417 13.0435C17.0699 13.0435 15.9777 11.9511 15.9775 10.604C15.9775 9.2568 17.0698 8.16455 18.417 8.16455ZM18.417 9.86572C18.0098 9.86581 17.6797 10.1968 17.6797 10.604C17.6799 11.011 18.0099 11.3412 18.417 11.3413C18.8241 11.3413 19.1541 11.0111 19.1543 10.604C19.1543 10.1967 18.8243 9.86572 18.417 9.86572Z"/>
</mask>
<path d="M18.417 8.16455C19.7642 8.16459 20.8564 9.25682 20.8564 10.604C20.8563 11.9511 19.7641 13.0434 18.417 13.0435C17.0699 13.0435 15.9777 11.9511 15.9775 10.604C15.9775 9.2568 17.0698 8.16455 18.417 8.16455ZM18.417 9.86572C18.0098 9.86581 17.6797 10.1968 17.6797 10.604C17.6799 11.011 18.0099 11.3412 18.417 11.3413C18.8241 11.3413 19.1541 11.0111 19.1543 10.604C19.1543 10.1967 18.8243 9.86572 18.417 9.86572Z" fill="#113567"/>
<path d="M18.417 8.16455L18.417 7.50514H18.417V8.16455ZM20.8564 10.604L21.5159 10.6041V10.604H20.8564ZM18.417 13.0435V13.7029H18.417L18.417 13.0435ZM15.9775 10.604H15.3181V10.6041L15.9775 10.604ZM18.417 9.86572V9.20631H18.4168L18.417 9.86572ZM17.6797 10.604H17.0203L17.0203 10.6044L17.6797 10.604ZM18.417 11.3413L18.4168 12.0007H18.417V11.3413ZM19.1543 10.604L19.8137 10.6044V10.604H19.1543ZM18.417 8.16455L18.417 8.82396C19.4 8.82399 20.197 9.62102 20.197 10.604H20.8564H21.5159C21.5159 8.89262 20.1283 7.50519 18.417 7.50514L18.417 8.16455ZM20.8564 10.604L20.197 10.6039C20.1969 11.5869 19.3999 12.384 18.417 12.384L18.417 13.0435L18.417 13.7029C20.1283 13.7028 21.5157 12.3152 21.5159 10.6041L20.8564 10.604ZM18.417 13.0435V12.384C17.4341 12.384 16.637 11.587 16.637 10.6039L15.9775 10.604L15.3181 10.6041C15.3183 12.3152 16.7056 13.7029 18.417 13.7029V13.0435ZM15.9775 10.604H16.637C16.637 9.62098 17.434 8.82396 18.417 8.82396V8.16455V7.50514C16.7056 7.50514 15.3181 8.89261 15.3181 10.604H15.9775ZM18.417 9.86572L18.4168 9.20631C17.6446 9.20648 17.0203 9.83357 17.0203 10.604H17.6797H18.3391C18.3391 10.56 18.375 10.5251 18.4171 10.5251L18.417 9.86572ZM17.6797 10.604L17.0203 10.6044C17.0207 11.3751 17.6455 12.0006 18.4168 12.0007L18.417 11.3413L18.4171 10.6819C18.3744 10.6819 18.3391 10.647 18.3391 10.6036L17.6797 10.604ZM18.417 11.3413V12.0007C19.1887 12.0007 19.8133 11.375 19.8137 10.6044L19.1543 10.604L18.4949 10.6036C18.4949 10.6472 18.4596 10.6819 18.417 10.6819V11.3413ZM19.1543 10.604H19.8137C19.8137 9.83366 19.1896 9.20631 18.417 9.20631V9.86572V10.5251C18.459 10.5251 18.4949 10.5598 18.4949 10.604H19.1543Z" fill="#113567" mask="url(#path-3-inside-1_682_7356)"/>
<mask id="path-5-inside-2_682_7356" fill="white">
<path d="M22.3882 25.637C23.7354 25.637 24.8276 26.7292 24.8276 28.0764C24.8276 29.4236 23.7354 30.5159 22.3882 30.5159C21.0412 30.5157 19.9488 29.4235 19.9487 28.0764C19.9487 26.7293 21.0411 25.6371 22.3882 25.637ZM22.3892 27.2258C21.9819 27.2258 21.6509 27.5558 21.6509 27.9631C21.6509 28.3704 21.9819 28.7004 22.3892 28.7004C22.7962 28.7002 23.1265 28.3703 23.1265 27.9631C23.1265 27.556 22.7962 27.2261 22.3892 27.2258Z"/>
</mask>
<path d="M22.3882 25.637C23.7354 25.637 24.8276 26.7292 24.8276 28.0764C24.8276 29.4236 23.7354 30.5159 22.3882 30.5159C21.0412 30.5157 19.9488 29.4235 19.9487 28.0764C19.9487 26.7293 21.0411 25.6371 22.3882 25.637ZM22.3892 27.2258C21.9819 27.2258 21.6509 27.5558 21.6509 27.9631C21.6509 28.3704 21.9819 28.7004 22.3892 28.7004C22.7962 28.7002 23.1265 28.3703 23.1265 27.9631C23.1265 27.556 22.7962 27.2261 22.3892 27.2258Z" fill="#113567"/>
<path d="M22.3882 25.637V24.9775H22.3881L22.3882 25.637ZM24.8276 28.0764L25.4871 28.0764V28.0764H24.8276ZM22.3882 30.5159L22.3881 31.1753H22.3882V30.5159ZM19.9487 28.0764H19.2893V28.0764L19.9487 28.0764ZM22.3892 27.2258L22.3896 26.5664H22.3892V27.2258ZM21.6509 27.9631H20.9915V27.9631L21.6509 27.9631ZM22.3892 28.7004V29.3599L22.3896 29.3599L22.3892 28.7004ZM23.1265 27.9631L23.7859 27.9631V27.9631H23.1265ZM22.3882 25.637V26.2964C23.3712 26.2964 24.1682 27.0934 24.1682 28.0764H24.8276H25.4871C25.4871 26.365 24.0996 24.9775 22.3882 24.9775V25.637ZM24.8276 28.0764L24.1682 28.0764C24.1682 29.0594 23.3712 29.8565 22.3882 29.8565V30.5159V31.1753C24.0996 31.1753 25.487 29.7878 25.4871 28.0764L24.8276 28.0764ZM22.3882 30.5159L22.3883 29.8565C21.4053 29.8563 20.6082 29.0592 20.6081 28.0764L19.9487 28.0764L19.2893 28.0764C19.2894 29.7877 20.677 31.175 22.3881 31.1753L22.3882 30.5159ZM19.9487 28.0764H20.6081C20.6081 27.0936 21.4052 26.2965 22.3883 26.2964L22.3882 25.637L22.3881 24.9775C20.677 24.9778 19.2893 26.365 19.2893 28.0764H19.9487ZM22.3892 27.2258V26.5664C21.6188 26.5664 20.9915 27.1905 20.9915 27.9631H21.6509H22.3103C22.3103 27.9212 22.3449 27.8852 22.3892 27.8852V27.2258ZM21.6509 27.9631L20.9915 27.9631C20.9915 28.7357 21.6188 29.3599 22.3892 29.3599V28.7004V28.041C22.3449 28.041 22.3103 28.0051 22.3103 27.9631L21.6509 27.9631ZM22.3892 28.7004L22.3896 29.3599C23.1601 29.3594 23.7859 28.7349 23.7859 27.9631L23.1265 27.9631L22.4671 27.9631C22.4671 28.0057 22.4324 28.041 22.3887 28.041L22.3892 28.7004ZM23.1265 27.9631H23.7859C23.7859 27.1914 23.1601 26.5669 22.3896 26.5664L22.3892 27.2258L22.3887 27.8852C22.4324 27.8853 22.4671 27.9206 22.4671 27.9631H23.1265Z" fill="#113567" mask="url(#path-5-inside-2_682_7356)"/>
<mask id="path-7-inside-3_682_7356" fill="white">
<path d="M27.2661 13.8376C28.6133 13.8376 29.7056 14.9299 29.7056 16.2771C29.7055 17.6243 28.6133 18.7166 27.2661 18.7166C25.9191 18.7164 24.8267 17.6242 24.8267 16.2771C24.8267 14.93 25.9191 13.8378 27.2661 13.8376ZM27.2671 15.5388C26.8598 15.5388 26.5288 15.8698 26.5288 16.2771C26.529 16.6842 26.8599 17.0144 27.2671 17.0144C27.674 17.0142 28.0042 16.684 28.0044 16.2771C28.0044 15.87 27.6742 15.5391 27.2671 15.5388Z"/>
</mask>
<path d="M27.2661 13.8376C28.6133 13.8376 29.7056 14.9299 29.7056 16.2771C29.7055 17.6243 28.6133 18.7166 27.2661 18.7166C25.9191 18.7164 24.8267 17.6242 24.8267 16.2771C24.8267 14.93 25.9191 13.8378 27.2661 13.8376ZM27.2671 15.5388C26.8598 15.5388 26.5288 15.8698 26.5288 16.2771C26.529 16.6842 26.8599 17.0144 27.2671 17.0144C27.674 17.0142 28.0042 16.684 28.0044 16.2771C28.0044 15.87 27.6742 15.5391 27.2671 15.5388Z" fill="#113567"/>
<path d="M27.2661 13.8376V13.1782H27.266L27.2661 13.8376ZM29.7056 16.2771L30.365 16.2771V16.2771H29.7056ZM27.2661 18.7166L27.266 19.376H27.2661V18.7166ZM24.8267 16.2771H24.1672V16.2771L24.8267 16.2771ZM27.2671 15.5388L27.2675 14.8794H27.2671V15.5388ZM26.5288 16.2771H25.8694L25.8694 16.2775L26.5288 16.2771ZM27.2671 17.0144V17.6738L27.2675 17.6738L27.2671 17.0144ZM28.0044 16.2771L28.6638 16.2775V16.2771H28.0044ZM27.2661 13.8376V14.4971C28.2491 14.4971 29.0462 15.2941 29.0462 16.2771H29.7056H30.365C30.365 14.5657 28.9775 13.1782 27.2661 13.1782V13.8376ZM29.7056 16.2771L29.0462 16.2771C29.0461 17.2601 28.2491 18.0571 27.2661 18.0571V18.7166V19.376C28.9775 19.376 30.3649 17.9884 30.365 16.2771L29.7056 16.2771ZM27.2661 18.7166L27.2662 18.0571C26.2832 18.057 25.4861 17.2599 25.4861 16.2771L24.8267 16.2771L24.1672 16.2771C24.1673 17.9884 25.5549 19.3757 27.266 19.376L27.2661 18.7166ZM24.8267 16.2771H25.4861C25.4861 15.2943 26.2832 14.4972 27.2662 14.4971L27.2661 13.8376L27.266 13.1782C25.5549 13.1785 24.1672 14.5657 24.1672 16.2771H24.8267ZM27.2671 15.5388V14.8794C26.4956 14.8794 25.8694 15.5056 25.8694 16.2771H26.5288H27.1882C27.1882 16.234 27.224 16.1982 27.2671 16.1982V15.5388ZM26.5288 16.2771L25.8694 16.2775C25.8699 17.0492 26.4965 17.6738 27.2671 17.6738V17.0144V16.355C27.2234 16.355 27.1882 16.3192 27.1882 16.2767L26.5288 16.2771ZM27.2671 17.0144L27.2675 17.6738C28.0383 17.6733 28.6634 17.0483 28.6638 16.2775L28.0044 16.2771L27.345 16.2767C27.345 16.3198 27.3098 16.355 27.2667 16.355L27.2671 17.0144ZM28.0044 16.2771H28.6638C28.6638 15.5065 28.0392 14.8799 27.2675 14.8794L27.2671 15.5388L27.2667 16.1982C27.3092 16.1983 27.345 16.2334 27.345 16.2771H28.0044Z" fill="#113567" mask="url(#path-7-inside-3_682_7356)"/>
<mask id="path-9-inside-4_682_7356" fill="white">
<path d="M9.68066 14.2913C11.0277 14.2915 12.1201 15.3836 12.1201 16.7307C12.12 18.0777 11.0277 19.17 9.68066 19.1702C8.33351 19.1702 7.2413 18.0778 7.24121 16.7307C7.24121 15.3835 8.33346 14.2913 9.68066 14.2913ZM9.68066 15.9924C9.27354 15.9925 8.9436 16.3227 8.94336 16.7297C8.94336 17.137 9.27339 17.468 9.68066 17.468C10.088 17.468 10.418 17.137 10.418 16.7297C10.4177 16.3226 10.0878 15.9924 9.68066 15.9924Z"/>
</mask>
<path d="M9.68066 14.2913C11.0277 14.2915 12.1201 15.3836 12.1201 16.7307C12.12 18.0777 11.0277 19.17 9.68066 19.1702C8.33351 19.1702 7.2413 18.0778 7.24121 16.7307C7.24121 15.3835 8.33346 14.2913 9.68066 14.2913ZM9.68066 15.9924C9.27354 15.9925 8.9436 16.3227 8.94336 16.7297C8.94336 17.137 9.27339 17.468 9.68066 17.468C10.088 17.468 10.418 17.137 10.418 16.7297C10.4177 16.3226 10.0878 15.9924 9.68066 15.9924Z" fill="#113567"/>
<path d="M9.68066 14.2913L9.68076 13.6318H9.68066V14.2913ZM12.1201 16.7307L12.7795 16.7308V16.7307H12.1201ZM9.68066 19.1702V19.8296H9.68076L9.68066 19.1702ZM7.24121 16.7307H6.5818V16.7308L7.24121 16.7307ZM9.68066 15.9924V15.333H9.68062L9.68066 15.9924ZM8.94336 16.7297L8.28395 16.7293V16.7297H8.94336ZM9.68066 17.468L9.68062 18.1274H9.68066V17.468ZM10.418 16.7297H11.0774L11.0774 16.7293L10.418 16.7297ZM9.68066 14.2913L9.68057 14.9507C10.6636 14.9508 11.4607 15.7479 11.4607 16.7307H12.1201H12.7795C12.7795 15.0193 11.3918 13.6321 9.68076 13.6318L9.68066 14.2913ZM12.1201 16.7307L11.4607 16.7307C11.4606 17.7135 10.6635 18.5106 9.68057 18.5108L9.68066 19.1702L9.68076 19.8296C11.3918 19.8293 12.7794 18.442 12.7795 16.7308L12.1201 16.7307ZM9.68066 19.1702V18.5108C8.69774 18.5108 7.90069 17.7137 7.90062 16.7307L7.24121 16.7307L6.5818 16.7308C6.58191 18.442 7.96928 19.8296 9.68066 19.8296V19.1702ZM7.24121 16.7307H7.90062C7.90062 15.7477 8.69764 14.9507 9.68066 14.9507V14.2913V13.6318C7.96927 13.6318 6.5818 15.0193 6.5818 16.7307H7.24121ZM9.68066 15.9924L9.68062 15.333C8.909 15.3331 8.2844 15.9587 8.28395 16.7293L8.94336 16.7297L9.60277 16.7301C9.6028 16.6866 9.63808 16.6518 9.6807 16.6518L9.68066 15.9924ZM8.94336 16.7297H8.28395C8.28395 17.5001 8.9081 18.1274 9.68062 18.1274L9.68066 17.468L9.6807 16.8086C9.63868 16.8086 9.60277 16.7739 9.60277 16.7297H8.94336ZM9.68066 17.468V18.1274C10.4533 18.1274 11.0774 17.5001 11.0774 16.7297H10.418H9.75855C9.75855 16.774 9.72264 16.8086 9.68066 16.8086V17.468ZM10.418 16.7297L11.0774 16.7293C11.0769 15.9588 10.4524 15.333 9.68066 15.333V15.9924V16.6518C9.72324 16.6518 9.75853 16.6865 9.75856 16.7301L10.418 16.7297Z" fill="#113567" mask="url(#path-9-inside-4_682_7356)"/>
<path d="M17.8242 12.7241L17.8242 24.8641" stroke="#113567" stroke-width="0.659414"/>
<path d="M17.4946 24.5938H22.7332" stroke="#113567" stroke-width="0.659414"/>
<path d="M23.7593 23.2747C23.4296 24.5936 22.7701 24.5937 22.7701 24.5937" stroke="#113567" stroke-width="0.659414" stroke-linecap="round"/>
<path d="M23.4298 23.2747C23.4298 23.3622 23.4645 23.446 23.5264 23.5079C23.5882 23.5697 23.6721 23.6044 23.7595 23.6044C23.8469 23.6044 23.9308 23.5697 23.9926 23.5079C24.0545 23.446 24.0892 23.3622 24.0892 23.2747C24.0892 23.2736 24.0892 23.2724 24.0892 23.2713C24.0892 23.2707 24.0892 23.2701 24.0892 23.2695C24.0892 23.2692 24.0892 23.2689 24.0892 23.2686C24.0892 23.2685 24.0892 23.2684 24.0892 23.2682C24.0892 23.2681 24.0892 23.2679 24.0892 23.2678C24.0892 23.2586 24.0892 23.2494 24.0892 23.2403C24.0892 23.1968 24.0892 23.1533 24.0892 23.1099C24.0892 22.1208 24.0892 21.1317 24.0892 20.1426C24.0892 20.0876 24.0892 20.0327 24.0892 19.9777C23.8693 19.9777 23.6495 19.9777 23.4297 19.9777C23.4297 20.0327 23.4297 20.0876 23.4297 20.1426C23.4298 21.1317 23.4298 22.1208 23.4298 23.1099C23.4298 23.1533 23.4298 23.1968 23.4298 23.2403C23.4298 23.2494 23.4298 23.2586 23.4298 23.2678C23.4298 23.2679 23.4298 23.2681 23.4298 23.2682C23.4298 23.2684 23.4298 23.2685 23.4298 23.2687C23.4298 23.2689 23.4298 23.2692 23.4298 23.2695C23.4298 23.2701 23.4298 23.2707 23.4298 23.2713C23.4298 23.2724 23.4298 23.2736 23.4298 23.2747Z" fill="#113567"/>
<path d="M25.2432 16.6809L22.4407 19.4834" stroke="#113567" stroke-width="0.659414" stroke-linecap="round"/>
<path d="M23.9929 20.2109C23.8641 20.3397 23.6554 20.3397 23.5266 20.2109C23.3979 20.0822 23.3979 19.8734 23.5266 19.7446L23.7598 19.9778L23.9929 20.2109ZM23.7598 19.9778L23.5266 19.7446L25.6697 17.6016L25.9029 17.8347L26.136 18.0678L23.9929 20.2109L23.7598 19.9778Z" fill="#113567"/>
<path d="M22.7701 19.4832C22.7701 19.3011 22.6225 19.1534 22.4404 19.1534C22.2583 19.1534 22.1107 19.3011 22.1107 19.4832H22.4404H22.7701ZM22.4404 19.4832H22.1107V23.6045H22.4404H22.7701V19.4832H22.4404Z" fill="#113567"/>
<path d="M14.1973 19.1827L14.1973 27.8907" stroke="#113567" stroke-width="0.659414" stroke-linecap="round"/>
<path d="M11.0258 18.6038L12.879 20.4724" stroke="#113567" stroke-width="0.659414" stroke-linecap="round"/>
<path d="M14.1721 19.1533L11.6994 16.6805" stroke="#113567" stroke-width="0.659414" stroke-linecap="round"/>
<line x1="22.1958" y1="23.2748" x2="19.4728" y2="23.2748" stroke="#113567" stroke-width="0.659414"/>
<path d="M19.1431 23.6045V12.7242" stroke="#113567" stroke-width="0.659414"/>
<path d="M13.8699 27.8906L20.1321 27.8906" stroke="#113567" stroke-width="0.659414"/>
<path d="M12.8794 20.4724V28.2205" stroke="#113567" stroke-width="0.659414" stroke-linecap="round"/>
<path d="M13.8682 29.2097L21.7811 29.2373" stroke="#113567" stroke-width="0.659414"/>
</svg>
