<svg width="150" height="151" viewBox="0 0 150 151" fill="none" xmlns="http://www.w3.org/2000/svg">
<g filter="url(#filter0_d_1203_10574)">
<path d="M97.3987 76.1973C97.2947 88.6322 87.1755 98.7516 74.7404 98.8555C62.3035 98.9593 52.1851 88.4762 52.0826 76.1973C52.039 70.9877 43.9566 70.9836 44.0002 76.1973C44.0667 84.1599 47.1159 91.6818 52.5608 97.4805C57.9625 103.233 65.5698 106.447 73.3806 106.904C81.3347 107.37 89.0914 104.348 95.0855 99.2303C101.091 94.1028 104.502 86.6488 105.346 78.8993C105.444 78.0023 105.473 77.099 105.481 76.1974C105.524 70.9836 97.4422 70.9877 97.3987 76.1973Z" fill="#4A5699"/>
<path d="M52.0826 74.741C52.1864 62.3057 62.3052 52.1864 74.7404 52.0825C79.9501 52.0389 79.9541 43.9567 74.7404 44.0002C66.6452 44.0677 58.9657 47.2231 53.1539 52.8552C47.2786 58.5484 44.0681 66.6093 44.0002 74.741C43.9566 79.9549 52.0389 79.9504 52.0826 74.741Z" fill="#C45FA9"/>
<path d="M67.6245 82.0204C64.2391 77.5038 64.739 72.3894 68.9508 68.7536C72.8902 65.3529 78.7168 66.641 82.0494 70.7824C83.4326 72.5009 86.3332 72.2137 87.7645 70.7824C89.4466 69.1001 89.1441 66.7818 87.7645 65.0674C82.1886 58.1387 71.5362 56.7781 64.4134 62.1171C56.9873 67.6835 54.9633 78.5185 60.6456 86.0995C61.9641 87.8584 64.1101 88.7587 66.1747 87.5492C67.9121 86.5316 68.9489 83.7872 67.6245 82.0204Z" fill="#E5594F"/>
<path d="M81.8579 70.5309C83.7749 73.0886 84.2706 75.0026 83.994 77.9849C84.0387 77.6196 84.0195 77.6856 83.9363 78.1832C83.855 78.6063 83.7326 79.0199 83.6109 79.4322C83.3538 80.3007 83.4245 80.0509 83.0015 80.8532C82.2529 82.2729 81.5344 82.9909 80.172 84.0873C78.4534 85.4705 78.7405 88.3709 80.172 89.8024C81.8542 91.4844 84.1727 91.1821 85.887 89.8024C92.8151 84.2259 94.1753 73.5743 88.8365 66.4515C87.5183 64.6926 85.3721 63.7924 83.3074 65.0017C81.57 66.0197 80.5334 68.7638 81.8579 70.5309Z" fill="#F39A2B"/>
</g>
<defs>
<filter id="filter0_d_1203_10574" x="0" y="0" width="149.48" height="150.951" filterUnits="userSpaceOnUse" color-interpolation-filters="sRGB">
<feFlood flood-opacity="0" result="BackgroundImageFix"/>
<feColorMatrix in="SourceAlpha" type="matrix" values="0 0 0 0 0 0 0 0 0 0 0 0 0 0 0 0 0 0 127 0" result="hardAlpha"/>
<feOffset/>
<feGaussianBlur stdDeviation="22"/>
<feComposite in2="hardAlpha" operator="out"/>
<feColorMatrix type="matrix" values="0 0 0 0 0.290196 0 0 0 0 0.337255 0 0 0 0 0.6 0 0 0 0.63 0"/>
<feBlend mode="normal" in2="BackgroundImageFix" result="effect1_dropShadow_1203_10574"/>
<feBlend mode="normal" in="SourceGraphic" in2="effect1_dropShadow_1203_10574" result="shape"/>
</filter>
</defs>
</svg>
