<svg width="35" height="41" viewBox="0 0 35 41" fill="none" xmlns="http://www.w3.org/2000/svg">
<path d="M17.4043 1.16827L1.16806 6.21759V18.4802C1.16806 29.3002 10.6392 35.7921 17.4043 39.3988C24.1695 35.7921 33.6406 29.3002 33.6406 18.4802V6.21759L17.4043 1.16827Z" stroke="#113567" stroke-width="2.33655" stroke-linejoin="round"/>
<path d="M14.4878 28.4783C12.5589 28.7182 12.5596 27.5204 12.5596 27.5204" stroke="#113567" stroke-width="0.643056"/>
<mask id="path-3-inside-1_650_6204" fill="white">
<path d="M17.9595 7.96198C19.2732 7.962 20.3384 9.0271 20.3384 10.3409C20.3383 11.6546 19.2732 12.7198 17.9595 12.7198C16.6457 12.7198 15.5807 11.6546 15.5806 10.3409C15.5806 9.02709 16.6457 7.96198 17.9595 7.96198ZM17.9595 9.62115C17.5624 9.62127 17.2407 9.94376 17.2407 10.3409C17.2409 10.7379 17.5625 11.0595 17.9595 11.0596C18.3566 11.0596 18.679 10.7379 18.6792 10.3409C18.6792 9.94369 18.3567 9.62115 17.9595 9.62115Z"/>
</mask>
<path d="M17.9595 7.96198C19.2732 7.962 20.3384 9.0271 20.3384 10.3409C20.3383 11.6546 19.2732 12.7198 17.9595 12.7198C16.6457 12.7198 15.5807 11.6546 15.5806 10.3409C15.5806 9.02709 16.6457 7.96198 17.9595 7.96198ZM17.9595 9.62115C17.5624 9.62127 17.2407 9.94376 17.2407 10.3409C17.2409 10.7379 17.5625 11.0595 17.9595 11.0596C18.3566 11.0596 18.679 10.7379 18.6792 10.3409C18.6792 9.94369 18.3567 9.62115 17.9595 9.62115Z" fill="#113567"/>
<path d="M17.9595 7.96198L17.9595 7.31892H17.9595V7.96198ZM20.3384 10.3409L20.9814 10.3409V10.3409H20.3384ZM17.9595 12.7198V13.3628H17.9595L17.9595 12.7198ZM15.5806 10.3409H14.9375V10.3409L15.5806 10.3409ZM17.9595 9.62115V8.9781H17.9593L17.9595 9.62115ZM17.2407 10.3409H16.5977V10.3411L17.2407 10.3409ZM17.9595 11.0596L17.9593 11.7027H17.9595V11.0596ZM18.6792 10.3409L19.3223 10.3411V10.3409H18.6792ZM17.9595 7.96198L17.9595 8.60503C18.9181 8.60505 19.6953 9.38227 19.6953 10.3409H20.3384H20.9814C20.9814 8.67194 19.6284 7.31895 17.9595 7.31892L17.9595 7.96198ZM20.3384 10.3409L19.6953 10.3408C19.6952 11.2994 18.918 12.0767 17.9595 12.0767L17.9595 12.7198L17.9595 13.3628C19.6284 13.3628 20.9813 12.0097 20.9814 10.3409L20.3384 10.3409ZM17.9595 12.7198V12.0767C17.001 12.0767 16.2237 11.2995 16.2236 10.3408L15.5806 10.3409L14.9375 10.3409C14.9376 12.0097 16.2905 13.3628 17.9595 13.3628V12.7198ZM15.5806 10.3409H16.2236C16.2236 9.38224 17.0008 8.60503 17.9595 8.60503V7.96198V7.31892C16.2905 7.31892 14.9375 8.67194 14.9375 10.3409H15.5806ZM17.9595 9.62115L17.9593 8.9781C17.2062 8.97831 16.5977 9.58956 16.5977 10.3409H17.2407H17.8838C17.8838 10.298 17.9185 10.2642 17.9597 10.2642L17.9595 9.62115ZM17.2407 10.3409L16.5977 10.3411C16.598 11.093 17.2072 11.7025 17.9593 11.7027L17.9595 11.0596L17.9597 10.4166C17.9177 10.4166 17.8838 10.3827 17.8838 10.3406L17.2407 10.3409ZM17.9595 11.0596V11.7027C18.7108 11.7027 19.3219 11.094 19.3223 10.3411L18.6792 10.3409L18.0361 10.3406C18.0361 10.3819 18.0023 10.4166 17.9595 10.4166V11.0596ZM18.6792 10.3409H19.3223C19.3223 9.58854 18.7118 8.9781 17.9595 8.9781V9.62115V10.2642C18.0015 10.2642 18.0361 10.2988 18.0361 10.3409H18.6792Z" fill="#113567" mask="url(#path-3-inside-1_650_6204)"/>
<mask id="path-5-inside-2_650_6204" fill="white">
<path d="M21.8325 25.0009C23.1463 25.0009 24.2114 26.066 24.2114 27.3798C24.2114 28.6936 23.1463 29.7587 21.8325 29.7587C20.5189 29.7585 19.4536 28.6935 19.4536 27.3798C19.4536 26.0662 20.5189 25.0011 21.8325 25.0009ZM21.8335 26.5507C21.4363 26.5507 21.1138 26.8723 21.1138 27.2695C21.1138 27.6667 21.4363 27.9882 21.8335 27.9882C22.2305 27.988 22.5522 27.6665 22.5522 27.2695C22.5522 26.8724 22.2305 26.551 21.8335 26.5507Z"/>
</mask>
<path d="M21.8325 25.0009C23.1463 25.0009 24.2114 26.066 24.2114 27.3798C24.2114 28.6936 23.1463 29.7587 21.8325 29.7587C20.5189 29.7585 19.4536 28.6935 19.4536 27.3798C19.4536 26.0662 20.5189 25.0011 21.8325 25.0009ZM21.8335 26.5507C21.4363 26.5507 21.1138 26.8723 21.1138 27.2695C21.1138 27.6667 21.4363 27.9882 21.8335 27.9882C22.2305 27.988 22.5522 27.6665 22.5522 27.2695C22.5522 26.8724 22.2305 26.551 21.8335 26.5507Z" fill="#113567"/>
<path d="M21.8325 25.0009V24.3579H21.8324L21.8325 25.0009ZM24.2114 27.3798L24.8545 27.3798V27.3798H24.2114ZM21.8325 29.7587L21.8324 30.4018H21.8325V29.7587ZM19.4536 27.3798H18.8106V27.3798L19.4536 27.3798ZM21.8335 26.5507L21.8339 25.9077H21.8335V26.5507ZM21.1138 27.2695H20.4707V27.2695L21.1138 27.2695ZM21.8335 27.9882V28.6313L21.8339 28.6313L21.8335 27.9882ZM22.5522 27.2695L23.1953 27.2695V27.2695H22.5522ZM21.8325 25.0009V25.644C22.7912 25.644 23.5684 26.4212 23.5684 27.3798H24.2114H24.8545C24.8545 25.7109 23.5015 24.3579 21.8325 24.3579V25.0009ZM24.2114 27.3798L23.5684 27.3798C23.5684 28.3385 22.7911 29.1157 21.8325 29.1157V29.7587V30.4018C23.5015 30.4018 24.8545 29.0487 24.8545 27.3798L24.2114 27.3798ZM21.8325 29.7587L21.8326 29.1157C20.874 29.1155 20.0967 28.3382 20.0967 27.3798L19.4536 27.3798L18.8106 27.3798C18.8106 29.0487 20.1638 30.4015 21.8324 30.4018L21.8325 29.7587ZM19.4536 27.3798H20.0967C20.0967 26.4214 20.874 25.6441 21.8326 25.644L21.8325 25.0009L21.8324 24.3579C20.1638 24.3581 18.8106 25.7109 18.8106 27.3798H19.4536ZM21.8335 26.5507V25.9077C21.0823 25.9077 20.4707 26.516 20.4707 27.2695H21.1138H21.7568C21.7568 27.2286 21.7903 27.1938 21.8335 27.1938V26.5507ZM21.1138 27.2695L20.4707 27.2695C20.4707 28.0229 21.0823 28.6313 21.8335 28.6313V27.9882V27.3452C21.7903 27.3452 21.7568 27.3104 21.7568 27.2695L21.1138 27.2695ZM21.8335 27.9882L21.8339 28.6313C22.5853 28.6308 23.1953 28.0221 23.1953 27.2695L22.5522 27.2695L21.9092 27.2695C21.9092 27.3109 21.8756 27.3451 21.8331 27.3452L21.8335 27.9882ZM22.5522 27.2695H23.1953C23.1953 26.5169 22.5853 25.9082 21.8339 25.9077L21.8335 26.5507L21.8331 27.1938C21.8756 27.1938 21.9092 27.228 21.9092 27.2695H22.5522Z" fill="#113567" mask="url(#path-5-inside-2_650_6204)"/>
<mask id="path-7-inside-3_650_6204" fill="white">
<path d="M26.5894 13.4944C27.9031 13.4944 28.9683 14.5596 28.9683 15.8734C28.9682 17.1871 27.9031 18.2523 26.5894 18.2523C25.2758 18.2521 24.2105 17.187 24.2104 15.8734C24.2104 14.5597 25.2757 13.4946 26.5894 13.4944ZM26.5903 15.1536C26.1931 15.1536 25.8706 15.4762 25.8706 15.8734C25.8708 16.2704 26.1932 16.5921 26.5903 16.5921C26.9872 16.5919 27.3089 16.2703 27.3091 15.8734C27.3091 15.4763 26.9873 15.1539 26.5903 15.1536Z"/>
</mask>
<path d="M26.5894 13.4944C27.9031 13.4944 28.9683 14.5596 28.9683 15.8734C28.9682 17.1871 27.9031 18.2523 26.5894 18.2523C25.2758 18.2521 24.2105 17.187 24.2104 15.8734C24.2104 14.5597 25.2757 13.4946 26.5894 13.4944ZM26.5903 15.1536C26.1931 15.1536 25.8706 15.4762 25.8706 15.8734C25.8708 16.2704 26.1932 16.5921 26.5903 16.5921C26.9872 16.5919 27.3089 16.2703 27.3091 15.8734C27.3091 15.4763 26.9873 15.1539 26.5903 15.1536Z" fill="#113567"/>
<path d="M26.5894 13.4944V12.8514H26.5893L26.5894 13.4944ZM28.9683 15.8734L29.6113 15.8734V15.8734H28.9683ZM26.5894 18.2523L26.5893 18.8953H26.5894V18.2523ZM24.2104 15.8734H23.5674V15.8734L24.2104 15.8734ZM26.5903 15.1536L26.5907 14.5106H26.5903V15.1536ZM25.8706 15.8734H25.2275V15.8736L25.8706 15.8734ZM26.5903 16.5921V17.2352H26.5907L26.5903 16.5921ZM27.3091 15.8734L27.9521 15.8736V15.8734H27.3091ZM26.5894 13.4944V14.1375C27.548 14.1375 28.3252 14.9147 28.3252 15.8734H28.9683H29.6113C29.6113 14.2044 28.2583 12.8514 26.5894 12.8514V13.4944ZM28.9683 15.8734L28.3252 15.8733C28.3252 16.832 27.548 17.6092 26.5894 17.6092V18.2523V18.8953C28.2583 18.8953 29.6113 17.5423 29.6113 15.8734L28.9683 15.8734ZM26.5894 18.2523L26.5895 17.6092C25.6308 17.6091 24.8535 16.8318 24.8535 15.8733L24.2104 15.8734L23.5674 15.8734C23.5674 17.5422 24.9207 18.8951 26.5893 18.8953L26.5894 18.2523ZM24.2104 15.8734H24.8535C24.8535 14.9149 25.6308 14.1376 26.5895 14.1375L26.5894 13.4944L26.5893 12.8514C24.9207 12.8516 23.5674 14.2044 23.5674 15.8734H24.2104ZM26.5903 15.1536V14.5106C25.838 14.5106 25.2275 15.121 25.2275 15.8734H25.8706H26.5137C26.5137 15.8313 26.5483 15.7967 26.5903 15.7967V15.1536ZM25.8706 15.8734L25.2275 15.8736C25.2279 16.6265 25.839 17.2352 26.5903 17.2352V16.5921V15.949C26.5475 15.949 26.5137 15.9143 26.5137 15.8731L25.8706 15.8734ZM26.5903 16.5921L26.5907 17.2352C27.3423 17.2347 27.9518 16.6256 27.9521 15.8736L27.3091 15.8734L26.666 15.8731C26.666 15.9149 26.6321 15.949 26.5899 15.949L26.5903 16.5921ZM27.3091 15.8734H27.9521C27.9521 15.1219 27.3433 14.511 26.5907 14.5106L26.5903 15.1536L26.5899 15.7967C26.6313 15.7967 26.666 15.8307 26.666 15.8734H27.3091Z" fill="#113567" mask="url(#path-7-inside-3_650_6204)"/>
<mask id="path-9-inside-4_650_6204" fill="white">
<path d="M9.43994 13.9368C10.7536 13.937 11.8188 15.0021 11.8188 16.3157C11.8188 17.6294 10.7535 18.6945 9.43994 18.6946C8.12619 18.6946 7.0611 17.6295 7.06104 16.3157C7.06104 15.0019 8.12615 13.9368 9.43994 13.9368ZM9.43994 15.596C9.04281 15.5961 8.72119 15.9186 8.72119 16.3157C8.72144 16.7127 9.04296 17.0344 9.43994 17.0345C9.83698 17.0345 10.1594 16.7127 10.1597 16.3157C10.1597 15.9185 9.83713 15.596 9.43994 15.596Z"/>
</mask>
<path d="M9.43994 13.9368C10.7536 13.937 11.8188 15.0021 11.8188 16.3157C11.8188 17.6294 10.7535 18.6945 9.43994 18.6946C8.12619 18.6946 7.0611 17.6295 7.06104 16.3157C7.06104 15.0019 8.12615 13.9368 9.43994 13.9368ZM9.43994 15.596C9.04281 15.5961 8.72119 15.9186 8.72119 16.3157C8.72144 16.7127 9.04296 17.0344 9.43994 17.0345C9.83698 17.0345 10.1594 16.7127 10.1597 16.3157C10.1597 15.9185 9.83713 15.596 9.43994 15.596Z" fill="#113567"/>
<path d="M9.43994 13.9368L9.44003 13.2938H9.43994V13.9368ZM11.8188 16.3157L12.4619 16.3158V16.3157H11.8188ZM9.43994 18.6946V19.3377H9.44003L9.43994 18.6946ZM7.06104 16.3157H6.41798V16.3158L7.06104 16.3157ZM9.43994 15.596V14.953H9.43983L9.43994 15.596ZM8.72119 16.3157H8.07813L8.07814 16.3161L8.72119 16.3157ZM9.43994 17.0345L9.43983 17.6775H9.43994V17.0345ZM10.1597 16.3157L10.8027 16.3161V16.3157H10.1597ZM9.43994 13.9368L9.43986 14.5799C10.3985 14.58 11.1758 15.3573 11.1758 16.3157H11.8188H12.4619C12.4619 14.6468 11.1087 13.294 9.44003 13.2938L9.43994 13.9368ZM11.8188 16.3157L11.1758 16.3157C11.1757 17.2742 10.3984 18.0515 9.43986 18.0516L9.43994 18.6946L9.44003 19.3377C11.1087 19.3375 12.4618 17.9846 12.4619 16.3158L11.8188 16.3157ZM9.43994 18.6946V18.0516C8.48138 18.0516 7.70414 17.2743 7.70409 16.3157L7.06104 16.3157L6.41798 16.3158C6.41806 17.9846 7.77101 19.3377 9.43994 19.3377V18.6946ZM7.06104 16.3157H7.70409C7.70409 15.3571 8.4813 14.5799 9.43994 14.5799V13.9368V13.2938C7.771 13.2938 6.41798 14.6468 6.41798 16.3157H7.06104ZM9.43994 15.596L9.43983 14.953C8.68661 14.9531 8.07814 15.5645 8.07814 16.3157H8.72119H9.36425C9.36425 16.2727 9.39901 16.2391 9.44005 16.2391L9.43994 15.596ZM8.72119 16.3157L8.07814 16.3161C8.07861 17.0676 8.6875 17.6774 9.43983 17.6775L9.43994 17.0345L9.44005 16.3914C9.39843 16.3914 9.36427 16.3577 9.36425 16.3153L8.72119 16.3157ZM9.43994 17.0345V17.6775C10.1914 17.6775 10.8023 17.0687 10.8027 16.3161L10.1597 16.3157L9.51661 16.3153C9.51659 16.3567 9.48257 16.3914 9.43994 16.3914V17.0345ZM10.1597 16.3157H10.8027C10.8027 15.5634 10.1923 14.953 9.43994 14.953V15.596V16.2391C9.48198 16.2391 9.51661 16.2737 9.51661 16.3157H10.1597Z" fill="#113567" mask="url(#path-9-inside-4_650_6204)"/>
<path d="M17.3813 12.4086L17.3813 24.2474" stroke="#113567" stroke-width="0.643056"/>
<path d="M17.0601 23.9836H22.1687" stroke="#113567" stroke-width="0.643056"/>
<path d="M23.1696 22.6974C22.8481 23.9835 22.205 23.9837 22.205 23.9837" stroke="#113567" stroke-width="0.643056" stroke-linecap="round"/>
<path d="M22.8483 22.6974C22.8483 22.7827 22.8821 22.8645 22.9424 22.9248C23.0027 22.9851 23.0845 23.019 23.1698 23.019C23.2551 23.019 23.3368 22.9851 23.3971 22.9248C23.4574 22.8645 23.4913 22.7827 23.4913 22.6974C23.4913 22.6974 23.4913 22.6974 23.4913 22.6974C23.4913 22.6963 23.4913 22.6952 23.4913 22.694C23.4913 22.6935 23.4913 22.6929 23.4913 22.6924C23.4913 22.6921 23.4913 22.6918 23.4913 22.6915C23.4913 22.6914 23.4913 22.6912 23.4913 22.6911C23.4913 22.6909 23.4913 22.6908 23.4913 22.6907C23.4913 22.6817 23.4913 22.6728 23.4913 22.6638C23.4913 22.6214 23.4913 22.5791 23.4913 22.5367C23.4913 21.5721 23.4913 20.6075 23.4913 19.643C23.4913 19.5894 23.4913 19.5358 23.4913 19.4822C23.2769 19.4822 23.0626 19.4822 22.8482 19.4822C22.8482 19.5358 22.8482 19.5894 22.8482 19.643C22.8482 20.6075 22.8482 21.5721 22.8483 22.5367C22.8483 22.5791 22.8483 22.6214 22.8483 22.6638C22.8483 22.6728 22.8483 22.6817 22.8483 22.6907C22.8483 22.6908 22.8483 22.691 22.8483 22.6911C22.8483 22.6912 22.8483 22.6914 22.8483 22.6915C22.8483 22.6918 22.8483 22.6921 22.8483 22.6924C22.8483 22.6929 22.8483 22.6935 22.8483 22.6941C22.8483 22.6952 22.8483 22.6963 22.8483 22.6974Z" fill="#113567"/>
<path d="M24.6167 16.267L21.8837 19" stroke="#113567" stroke-width="0.643056" stroke-linecap="round"/>
<path d="M23.3973 19.7097C23.2717 19.8352 23.0681 19.8352 22.9426 19.7097C22.817 19.5841 22.817 19.3805 22.9426 19.2549L23.1699 19.4823L23.3973 19.7097ZM23.1699 19.4823L22.9426 19.2549L25.0325 17.165L25.2599 17.3924L25.4872 17.6197L23.3973 19.7097L23.1699 19.4823Z" fill="#113567"/>
<path d="M22.2048 18.9999C22.2048 18.8223 22.0609 18.6783 21.8833 18.6783C21.7057 18.6783 21.5618 18.8223 21.5618 18.9999H21.8833H22.2048ZM21.8833 18.9999H21.5618V23.019H21.8833H22.2048V18.9999H21.8833Z" fill="#113567"/>
<path d="M13.8447 18.7068L13.8447 27.1988" stroke="#113567" stroke-width="0.643056" stroke-linecap="round"/>
<path d="M10.7516 18.1423L12.5588 19.9645" stroke="#113567" stroke-width="0.643056" stroke-linecap="round"/>
<path d="M13.8202 18.6783L11.4088 16.2668" stroke="#113567" stroke-width="0.643056" stroke-linecap="round"/>
<line x1="21.6445" y1="22.6975" x2="18.9891" y2="22.6975" stroke="#113567" stroke-width="0.643056"/>
<path d="M18.6675 23.019V12.4086" stroke="#113567" stroke-width="0.643056"/>
<path d="M13.5251 27.1989L19.6321 27.1989" stroke="#113567" stroke-width="0.643056"/>
<path d="M12.5591 19.9645V27.5203" stroke="#113567" stroke-width="0.643056" stroke-linecap="round"/>
<path d="M13.5234 28.485L21.2401 28.5119" stroke="#113567" stroke-width="0.643056"/>
</svg>
